<?xml version="1.0" encoding="UTF-8" standalone="no"?>
<!-- Created with Inkscape (http://www.inkscape.org/) -->

<svg
   xmlns:osb="http://www.openswatchbook.org/uri/2009/osb"
   xmlns:dc="http://purl.org/dc/elements/1.1/"
   xmlns:cc="http://creativecommons.org/ns#"
   xmlns:rdf="http://www.w3.org/1999/02/22-rdf-syntax-ns#"
   xmlns:svg="http://www.w3.org/2000/svg"
   xmlns="http://www.w3.org/2000/svg"
   xmlns:sodipodi="http://sodipodi.sourceforge.net/DTD/sodipodi-0.dtd"
   xmlns:inkscape="http://www.inkscape.org/namespaces/inkscape"
   width="50mm"
   height="50mm"
   viewBox="0 0 177.16535 177.16535"
   id="svg10469"
   version="1.1"
   inkscape:version="0.91 r13725"
   sodipodi:docname="onboard-frame-home-view.svg">
  <defs
     id="defs10471">
    <linearGradient
       id="yellow"
       osb:paint="solid">
      <stop
         style="stop-color:#ffd732;stop-opacity:1;"
         offset="0"
         id="stop5896" />
    </linearGradient>
    <linearGradient
       id="orange"
       osb:paint="solid">
      <stop
         style="stop-color:#ff7800;stop-opacity:1;"
         offset="0"
         id="stop5888" />
    </linearGradient>
    <linearGradient
       id="red-1"
       osb:paint="solid">
      <stop
         style="stop-color:#a00000;stop-opacity:1;"
         offset="0"
         id="stop5872" />
    </linearGradient>
    <linearGradient
       id="pink"
       osb:paint="solid">
      <stop
         style="stop-color:#ff64d2;stop-opacity:1;"
         offset="0"
         id="stop5864" />
    </linearGradient>
    <linearGradient
       id="green"
       osb:paint="solid">
      <stop
         style="stop-color:#006e00;stop-opacity:1;"
         offset="0"
         id="stop5856" />
    </linearGradient>
    <linearGradient
       id="light-green"
       osb:paint="solid">
      <stop
         style="stop-color:#78e600;stop-opacity:1;"
         offset="0"
         id="stop5840" />
    </linearGradient>
    <linearGradient
       id="blue"
       osb:paint="solid">
      <stop
         style="stop-color:#033cdf;stop-opacity:0.94117647;"
         offset="0"
         id="stop5832" />
    </linearGradient>
    <linearGradient
       id="light-blue"
       osb:paint="solid">
      <stop
         style="stop-color:#00beff;stop-opacity:1;"
         offset="0"
         id="stop5824" />
    </linearGradient>
    <linearGradient
       id="purple"
       osb:paint="solid"
       gradientTransform="matrix(1.4286371,0,0,1.4286371,-603.13975,-83.386362)">
      <stop
         style="stop-color:#6e008c;stop-opacity:1;"
         offset="0"
         id="stop5814" />
    </linearGradient>
    <linearGradient
       id="linearGradient5804">
      <stop
         style="stop-color:#6e008c;stop-opacity:1;"
         offset="0"
         id="stop5806" />
    </linearGradient>
    <linearGradient
       id="linearGradient5796">
      <stop
         style="stop-color:#6e008c;stop-opacity:1;"
         offset="0"
         id="stop5798" />
    </linearGradient>
    <linearGradient
       id="linearGradient5778-5">
      <stop
         id="stop5794"
         offset="0"
         style="stop-color:#000000;stop-opacity:1;" />
    </linearGradient>
    <linearGradient
       id="linearGradient5818"
       gradientTransform="matrix(1.1011289,0,0,0.99286984,-7.5883503,-8.870793)"
       x1="-77.126953"
       y1="-18.851274"
       x2="-30.78426"
       y2="-18.851274"
       gradientUnits="userSpaceOnUse">
      <stop
         style="stop-color:#6e008c;stop-opacity:1;"
         offset="0"
         id="stop5788" />
    </linearGradient>
    <linearGradient
       id="linearGradient5778">
      <stop
         style="stop-color:#000000;stop-opacity:1;"
         offset="0"
         id="stop5780" />
    </linearGradient>
    <clipPath
       id="clipPath1906"
       clipPathUnits="userSpaceOnUse">
      <path
         inkscape:connector-curvature="0"
         id="path1908"
         d="m 6.840076,155.265 36.42259,0 0,36.42258 -36.42259,0 0,-36.42258 z" />
    </clipPath>
    <clipPath
       id="clipPath1894"
       clipPathUnits="userSpaceOnUse">
      <path
         inkscape:connector-curvature="0"
         id="path1896"
         d="m 6.840076,155.265 36.42259,0 0,36.42258 -36.42259,0 0,-36.42258 z" />
    </clipPath>
    <clipPath
       id="clipPath1882"
       clipPathUnits="userSpaceOnUse">
      <path
         inkscape:connector-curvature="0"
         id="path1884"
         d="m 6.840076,155.265 36.42259,0 0,36.42258 -36.42259,0 0,-36.42258 z" />
    </clipPath>
    <clipPath
       id="clipPath1870"
       clipPathUnits="userSpaceOnUse">
      <path
         inkscape:connector-curvature="0"
         id="path1872"
         d="m 6.840076,155.265 36.42259,0 0,36.42258 -36.42259,0 0,-36.42258 z" />
    </clipPath>
    <clipPath
       id="clipPath1858"
       clipPathUnits="userSpaceOnUse">
      <path
         inkscape:connector-curvature="0"
         id="path1860"
         d="m 6.840076,155.265 36.42259,0 0,36.42258 -36.42259,0 0,-36.42258 z" />
    </clipPath>
    <clipPath
       id="clipPath1848"
       clipPathUnits="userSpaceOnUse">
      <path
         inkscape:connector-curvature="0"
         id="path1850"
         d="m 6.840076,155.265 36.42259,0 0,36.42258 -36.42259,0 0,-36.42258 z" />
    </clipPath>
    <clipPath
       id="clipPath1906-9"
       clipPathUnits="userSpaceOnUse">
      <path
         inkscape:connector-curvature="0"
         id="path1908-7"
         d="m 6.840076,155.265 36.42259,0 0,36.42258 -36.42259,0 0,-36.42258 z" />
    </clipPath>
    <clipPath
       id="clipPath1894-7"
       clipPathUnits="userSpaceOnUse">
      <path
         inkscape:connector-curvature="0"
         id="path1896-4"
         d="m 6.840076,155.265 36.42259,0 0,36.42258 -36.42259,0 0,-36.42258 z" />
    </clipPath>
    <clipPath
       id="clipPath1882-7"
       clipPathUnits="userSpaceOnUse">
      <path
         inkscape:connector-curvature="0"
         id="path1884-5"
         d="m 6.840076,155.265 36.42259,0 0,36.42258 -36.42259,0 0,-36.42258 z" />
    </clipPath>
    <clipPath
       id="clipPath1870-5"
       clipPathUnits="userSpaceOnUse">
      <path
         inkscape:connector-curvature="0"
         id="path1872-5"
         d="m 6.840076,155.265 36.42259,0 0,36.42258 -36.42259,0 0,-36.42258 z" />
    </clipPath>
    <clipPath
       id="clipPath1858-1"
       clipPathUnits="userSpaceOnUse">
      <path
         inkscape:connector-curvature="0"
         id="path1860-5"
         d="m 6.840076,155.265 36.42259,0 0,36.42258 -36.42259,0 0,-36.42258 z" />
    </clipPath>
    <clipPath
       id="clipPath1848-2"
       clipPathUnits="userSpaceOnUse">
      <path
         inkscape:connector-curvature="0"
         id="path1850-5"
         d="m 6.840076,155.265 36.42259,0 0,36.42258 -36.42259,0 0,-36.42258 z" />
    </clipPath>
    <clipPath
       id="clipPath2384"
       clipPathUnits="userSpaceOnUse">
      <path
         inkscape:connector-curvature="0"
         id="path2386"
         d="m 305.3834,551.3584 38.1344,0 0,38.1344 -38.1344,0 0,-38.1344 z" />
    </clipPath>
    <clipPath
       id="clipPath2374"
       clipPathUnits="userSpaceOnUse">
      <path
         inkscape:connector-curvature="0"
         id="path2376"
         d="m 305.3834,551.3584 38.1344,0 0,38.1344 -38.1344,0 0,-38.1344 z" />
    </clipPath>
    <clipPath
       id="clipPath2362"
       clipPathUnits="userSpaceOnUse">
      <path
         inkscape:connector-curvature="0"
         id="path2364"
         d="m 305.3834,551.3584 38.1344,0 0,38.1344 -38.1344,0 0,-38.1344 z" />
    </clipPath>
    <clipPath
       id="clipPath2352"
       clipPathUnits="userSpaceOnUse">
      <path
         inkscape:connector-curvature="0"
         id="path2354"
         d="m 305.3834,551.3584 38.1344,0 0,38.1344 -38.1344,0 0,-38.1344 z" />
    </clipPath>
    <clipPath
       id="clipPath2340"
       clipPathUnits="userSpaceOnUse">
      <path
         inkscape:connector-curvature="0"
         id="path2342"
         d="m 305.3834,551.3584 38.1344,0 0,38.1344 -38.1344,0 0,-38.1344 z" />
    </clipPath>
    <clipPath
       id="clipPath2330"
       clipPathUnits="userSpaceOnUse">
      <path
         inkscape:connector-curvature="0"
         id="path2332"
         d="m 305.3834,551.3584 38.1344,0 0,38.1344 -38.1344,0 0,-38.1344 z" />
    </clipPath>
    <clipPath
       id="clipPath2318"
       clipPathUnits="userSpaceOnUse">
      <path
         inkscape:connector-curvature="0"
         id="path2320"
         d="m 305.3834,551.3584 38.1344,0 0,38.1344 -38.1344,0 0,-38.1344 z" />
    </clipPath>
    <clipPath
       id="clipPath2308"
       clipPathUnits="userSpaceOnUse">
      <path
         inkscape:connector-curvature="0"
         id="path2310"
         d="m 305.3834,551.3584 38.1344,0 0,38.1344 -38.1344,0 0,-38.1344 z" />
    </clipPath>
    <clipPath
       id="clipPath2296"
       clipPathUnits="userSpaceOnUse">
      <path
         inkscape:connector-curvature="0"
         id="path2298"
         d="m 305.3834,551.3584 38.1344,0 0,38.1344 -38.1344,0 0,-38.1344 z" />
    </clipPath>
    <clipPath
       id="clipPath2286"
       clipPathUnits="userSpaceOnUse">
      <path
         inkscape:connector-curvature="0"
         id="path2288"
         d="m 305.3834,551.3584 38.1344,0 0,38.1344 -38.1344,0 0,-38.1344 z" />
    </clipPath>
    <clipPath
       id="clipPath2274"
       clipPathUnits="userSpaceOnUse">
      <path
         inkscape:connector-curvature="0"
         id="path2276"
         d="m 305.3834,551.3584 38.1344,0 0,38.1344 -38.1344,0 0,-38.1344 z" />
    </clipPath>
    <clipPath
       id="clipPath2264"
       clipPathUnits="userSpaceOnUse">
      <path
         inkscape:connector-curvature="0"
         id="path2266"
         d="m 305.3834,551.3584 38.1344,0 0,38.1344 -38.1344,0 0,-38.1344 z" />
    </clipPath>
    <clipPath
       id="clipPath2252"
       clipPathUnits="userSpaceOnUse">
      <path
         inkscape:connector-curvature="0"
         id="path2254"
         d="m 305.3834,551.3584 38.1344,0 0,38.1344 -38.1344,0 0,-38.1344 z" />
    </clipPath>
    <clipPath
       id="clipPath2242"
       clipPathUnits="userSpaceOnUse">
      <path
         inkscape:connector-curvature="0"
         id="path2244"
         d="m 305.3834,551.3584 38.1344,0 0,38.1344 -38.1344,0 0,-38.1344 z" />
    </clipPath>
    <clipPath
       id="clipPath2230"
       clipPathUnits="userSpaceOnUse">
      <path
         inkscape:connector-curvature="0"
         id="path2232"
         d="m 356.3564,552.4467 35.95789,0 0,35.95789 -35.95789,0 0,-35.95789 z" />
    </clipPath>
    <clipPath
       id="clipPath2220"
       clipPathUnits="userSpaceOnUse">
      <path
         inkscape:connector-curvature="0"
         id="path2222"
         d="m 356.3564,552.4467 35.95789,0 0,35.95789 -35.95789,0 0,-35.95789 z" />
    </clipPath>
    <clipPath
       id="clipPath1980"
       clipPathUnits="userSpaceOnUse">
      <path
         inkscape:connector-curvature="0"
         id="path1982"
         d="m 256.9349,552.227 36.39722,0 0,36.39722 -36.39722,0 0,-36.39722 z" />
    </clipPath>
    <clipPath
       id="clipPath1968"
       clipPathUnits="userSpaceOnUse">
      <path
         inkscape:connector-curvature="0"
         id="path1970"
         d="m 256.9349,552.227 36.39722,0 0,36.39722 -36.39722,0 0,-36.39722 z" />
    </clipPath>
    <clipPath
       id="clipPath1956"
       clipPathUnits="userSpaceOnUse">
      <path
         inkscape:connector-curvature="0"
         id="path1958"
         d="m 256.9349,552.227 36.39722,0 0,36.39722 -36.39722,0 0,-36.39722 z" />
    </clipPath>
    <clipPath
       id="clipPath1944"
       clipPathUnits="userSpaceOnUse">
      <path
         inkscape:connector-curvature="0"
         id="path1946"
         d="m 256.9349,552.227 36.39722,0 0,36.39722 -36.39722,0 0,-36.39722 z" />
    </clipPath>
    <clipPath
       id="clipPath1932"
       clipPathUnits="userSpaceOnUse">
      <path
         inkscape:connector-curvature="0"
         id="path1934"
         d="m 256.9349,552.227 36.39722,0 0,36.39722 -36.39722,0 0,-36.39722 z" />
    </clipPath>
    <clipPath
       id="clipPath1918"
       clipPathUnits="userSpaceOnUse">
      <path
         inkscape:connector-curvature="0"
         id="path1920"
         d="m 256.9349,552.227 36.39722,0 0,36.39722 -36.39722,0 0,-36.39722 z" />
    </clipPath>
    <clipPath
       id="clipPath2108"
       clipPathUnits="userSpaceOnUse">
      <path
         inkscape:connector-curvature="0"
         id="path2110"
         d="m 204.2226,551.1937 38.26157,0 0,38.26178 -38.26157,0 0,-38.26178 z" />
    </clipPath>
    <clipPath
       id="clipPath2098"
       clipPathUnits="userSpaceOnUse">
      <path
         inkscape:connector-curvature="0"
         id="path2100"
         d="m 105.296,551.1937 38.26183,0 0,38.26178 -38.26183,0 0,-38.26178 z" />
    </clipPath>
    <clipPath
       id="clipPath2088"
       clipPathUnits="userSpaceOnUse">
      <path
         inkscape:connector-curvature="0"
         id="path2090"
         d="m 155.2399,551.1937 38.2619,0 0,38.26178 -38.2619,0 0,-38.26178 z" />
    </clipPath>
    <clipPath
       id="clipPath2078"
       clipPathUnits="userSpaceOnUse">
      <path
         inkscape:connector-curvature="0"
         id="path2080"
         d="m 56.87678,551.1937 38.26177,0 0,38.26178 -38.26177,0 0,-38.26178 z" />
    </clipPath>
  </defs>
  <sodipodi:namedview
     id="base"
     pagecolor="#ffffff"
     bordercolor="#666666"
     borderopacity="1.0"
     inkscape:pageopacity="0.0"
     inkscape:pageshadow="2"
     inkscape:zoom="3.959798"
     inkscape:cx="140.86741"
     inkscape:cy="93.334978"
     inkscape:document-units="px"
     inkscape:current-layer="layer1"
     showgrid="false"
     fit-margin-top="0"
     fit-margin-left="0"
     fit-margin-right="0"
     fit-margin-bottom="0"
     inkscape:window-width="1920"
     inkscape:window-height="998"
     inkscape:window-x="0"
     inkscape:window-y="35"
     inkscape:window-maximized="1" />
  <metadata
     id="metadata10474">
    <rdf:RDF>
      <cc:Work
         rdf:about="">
        <dc:format>image/svg+xml</dc:format>
        <dc:type
           rdf:resource="http://purl.org/dc/dcmitype/StillImage" />
        <dc:title></dc:title>
      </cc:Work>
    </rdf:RDF>
  </metadata>
  <g
     inkscape:label="Layer 1"
     inkscape:groupmode="layer"
     id="layer1"
     transform="translate(0,33.030744)">
    <rect
       style="opacity:1;fill:#c0c0c0;fill-opacity:1;stroke:none;stroke-width:6.84967518;stroke-linecap:round;stroke-linejoin:round;stroke-miterlimit:4;stroke-dasharray:none;stroke-dashoffset:0;stroke-opacity:1"
       id="rect4248"
       width="178.15031"
       height="177.07889"
       x="0"
       y="-32.944298" />
    <flowRoot
       xml:space="preserve"
       id="flowRoot5665"
       style="font-style:normal;font-weight:normal;font-size:11.01864147px;line-height:125%;font-family:sans-serif;letter-spacing:0px;word-spacing:0px;fill:#000000;fill-opacity:1;stroke:none;stroke-width:1px;stroke-linecap:butt;stroke-linejoin:miter;stroke-opacity:1"
       transform="matrix(1.0369789,0,0,1.0369789,-133.11517,1.2214402)"><flowRegion
         id="flowRegion5667"><rect
           id="rect5669"
           width="22.725948"
           height="18.200434"
           x="-217.35857"
           y="41.468258" /></flowRegion><flowPara
         id="flowPara5671" /></flowRoot>    <g
       transform="matrix(1.2499999,0,0,-1.2499999,-110.86423,710.7192)"
       id="g1682">
      <path
         inkscape:connector-curvature="0"
         id="path1684"
         style="fill:#282728;fill-opacity:1;fill-rule:nonzero;stroke:none"
         d="m 744.037,49.29401 -694.7425,0 0,496.40719 694.7425,0 0,-496.40719 z m 49.295,0 c 0,181.90199 0,363.80399 0,545.70599 L 0,595 0,0 l 793.332,0 0,49.29401 z" />
    </g>
    <path
       inkscape:connector-curvature="0"
       id="path1742"
       style="fill:#848284;fill-opacity:1;fill-rule:nonzero;stroke:none"
       d="m 142.46158,-23.54774 c 0,-2.14988 1.74284,-3.89275 3.89274,-3.89275 l 43.59011,0 c 2.14992,0 3.89275,1.74287 3.89275,3.89275 l 0,43.58949 c 0,2.15 -1.74283,3.89275 -3.89275,3.89275 l -43.59011,0 c -2.1499,0 -3.89274,-1.74275 -3.89274,-3.89275 l 0,-43.58949 z" />
    <g
       transform="matrix(1.2499999,0,0,-1.2499999,-110.86423,710.7192)"
       id="g2074">
      <g
         clip-path="url(#clipPath2078)"
         id="g2076">
        <path
           inkscape:connector-curvature="0"
           id="path2082"
           style="fill:#ffffff;fill-opacity:1;fill-rule:nonzero;stroke:none"
           d="m 76.00772,585.9771 c -8.64441,0 -15.65259,-7.0082 -15.65259,-15.6525 0,-8.645 7.00818,-15.6526 15.65259,-15.6526 8.64508,0 15.65259,7.0076 15.65259,15.6526 0,8.6443 -7.00751,15.6525 -15.65259,15.6525 z m 7.02905,-6.1942 c 1.45813,0 2.64006,-1.1819 2.64006,-2.6393 0,-1.4582 -1.18193,-2.6394 -2.64006,-2.6394 -1.45812,0 -2.63939,1.1819 -2.63939,2.6394 0,1.4574 1.18265,2.6393 2.63939,2.6393 z m -19.46347,-9.459 c 0,1.4602 1.18264,2.6429 2.63868,2.6429 1.45882,0 2.64076,-1.1827 2.64076,-2.6429 0,-1.4574 -1.18264,-2.6387 -2.64076,-2.6387 -1.45743,0 -2.63868,1.1813 -2.63868,2.6387 z m 5.40188,-9.4576 c -1.45604,0 -2.63868,1.1792 -2.63868,2.6379 0,1.4602 1.18334,2.6408 2.63868,2.6408 1.46021,0 2.64285,-1.1799 2.64285,-2.6408 -6.9e-4,-1.4573 -1.18334,-2.6379 -2.64285,-2.6379 z m 0.21356,13.8445 c -1.45672,0 -2.64006,1.1826 -2.64006,2.6428 0,1.4582 1.18264,2.6401 2.64006,2.6401 1.46022,0 2.64077,-1.1833 2.64077,-2.6401 7e-4,-1.4602 -1.17985,-2.6428 -2.64077,-2.6428 z m 6.81828,-16.8205 c -1.46091,0 -2.64146,1.1825 -2.64146,2.6392 0,1.4596 1.17985,2.6415 2.64146,2.6415 1.45743,0 2.63938,-1.1819 2.63938,-2.6415 0,-1.458 -1.18195,-2.6392 -2.63938,-2.6392 z m 0.0014,19.5879 c -1.45812,0 -2.64007,1.182 -2.64007,2.6401 0,1.4581 1.18195,2.64 2.64007,2.64 1.45881,0 2.64007,-1.1819 2.64007,-2.64 0,-1.4581 -1.18126,-2.6401 -2.64007,-2.6401 z m 6.81757,-16.8241 c -1.45812,0 -2.64007,1.182 -2.64007,2.64 0,1.4582 1.18195,2.6395 2.64007,2.6395 1.45812,0 2.63937,-1.1813 2.63937,-2.6395 0,-1.458 -1.18193,-2.64 -2.63937,-2.64 z m 2.97749,7.0283 c -1.45815,0 -2.6401,1.1812 -2.6401,2.6402 0,1.458 1.18195,2.6385 2.64286,2.6385 1.45674,0 2.63728,-1.1805 2.63728,-2.6385 0,-1.459 -1.18054,-2.6402 -2.64004,-2.6402 z" />
      </g>
    </g>
    <g
       transform="matrix(1.2499999,0,0,-1.2499999,-110.86423,710.7192)"
       id="g2084">
      <g
         clip-path="url(#clipPath2088)"
         id="g2086">
        <path
           inkscape:connector-curvature="0"
           id="path2092"
           style="fill:#ffffff;fill-opacity:1;fill-rule:nonzero;stroke:none"
           d="m 174.3708,585.9771 c -8.6444,0 -15.6526,-7.0074 -15.6526,-15.6526 0,-8.6443 7.0082,-15.6525 15.6526,-15.6525 8.6458,0 15.6526,7.0082 15.6526,15.6525 0,8.6452 -7.0082,15.6526 -15.6526,15.6526 z m -0.002,-18.9577 c -1.8234,0 -3.3038,1.4824 -3.3038,3.3044 0,1.8254 1.4804,3.3044 3.3038,3.3044 1.8282,0 3.3093,-1.479 3.3093,-3.3044 0,-1.822 -1.4811,-3.3044 -3.3093,-3.3044 z" />
      </g>
    </g>
    <g
       transform="matrix(1.2499999,0,0,-1.2499999,-110.86423,710.7192)"
       id="g2094">
      <g
         clip-path="url(#clipPath2098)"
         id="g2096">
        <path
           inkscape:connector-curvature="0"
           id="path2102"
           style="fill:#ffffff;fill-opacity:1;fill-rule:nonzero;stroke:none"
           d="m 124.4269,585.9771 c -8.6445,0 -15.6527,-7.0082 -15.6527,-15.6526 0,-8.6443 7.0082,-15.6525 15.6527,-15.6525 8.6444,0 15.6526,7.0082 15.6526,15.6525 0,8.6444 -7.0082,15.6526 -15.6526,15.6526 z m -6.0809,-22.9258 c -1.8213,0 -3.301,1.4798 -3.301,3.3017 0,1.8234 1.4783,3.3009 3.301,3.3009 1.8227,0 3.303,-1.4775 3.303,-3.3009 -6e-4,-1.8219 -1.4803,-3.3017 -3.303,-3.3017 z m 6.0809,10.6647 c -1.8234,0 -3.3017,1.4782 -3.3017,3.3024 0,1.8211 1.4783,3.2987 3.3017,3.2987 1.8247,0 3.303,-1.4768 3.303,-3.2987 -0.001,-1.8249 -1.4797,-3.3024 -3.303,-3.3024 z m 6.0787,-10.6632 c -1.8219,0 -3.3002,1.4783 -3.3002,3.3002 0,1.8234 1.4783,3.3017 3.3002,3.3017 1.8248,0 3.3031,-1.4783 3.3031,-3.3017 0,-1.8219 -1.4783,-3.3002 -3.3031,-3.3002 z" />
      </g>
    </g>
    <g
       style="opacity:1"
       transform="matrix(2.133899,0,0,2.133899,159.68479,-225.83113)"
       id="g19770">
      <g
         id="g19772"
         style="stroke:#000000;stroke-opacity:1">
        <g
           transform="translate(102,72)"
           id="g19774">
          <g
             transform="translate(-5.0507621,-2.5253811)"
             id="g19776">
            <g
               id="g19778">
              <g
                 id="g19780"
                 style="stroke:#ffffff;stroke-width:7;stroke-miterlimit:4;stroke-dasharray:none;stroke-opacity:1"
                 transform="translate(2,0)">
                <path
                   sodipodi:nodetypes="ccc"
                   inkscape:connector-curvature="0"
                   id="path19782"
                   d="m -122.86,57.892837 0,-14.016227 13.70039,0"
                   style="fill:none;fill-rule:evenodd;stroke:#ffffff;stroke-width:7;stroke-linecap:round;stroke-linejoin:miter;stroke-miterlimit:4;stroke-dasharray:none;stroke-opacity:1" />
                <path
                   sodipodi:nodetypes="cc"
                   inkscape:connector-curvature="0"
                   id="path19784"
                   d="m -122.73353,44.192643 15.87833,15.436393"
                   style="fill:none;fill-rule:evenodd;stroke:#ffffff;stroke-width:7;stroke-linecap:round;stroke-linejoin:miter;stroke-miterlimit:4;stroke-dasharray:none;stroke-opacity:1" />
              </g>
              <path
                 style="fill:none;fill-rule:evenodd;stroke:#000000;stroke-width:5;stroke-linecap:round;stroke-linejoin:miter;stroke-miterlimit:4;stroke-dasharray:none;stroke-opacity:1"
                 d="m -120.86,57.892837 0,-14.016227 13.70039,0"
                 id="path19786"
                 inkscape:connector-curvature="0"
                 sodipodi:nodetypes="ccc" />
              <path
                 sodipodi:nodetypes="cc"
                 style="fill:none;fill-rule:evenodd;stroke:#000000;stroke-width:5;stroke-linecap:round;stroke-linejoin:miter;stroke-miterlimit:4;stroke-dasharray:none;stroke-opacity:1"
                 d="m -120.73353,44.192643 15.56266,15.310124"
                 id="path19788"
                 inkscape:connector-curvature="0" />
            </g>
          </g>
        </g>
      </g>
    </g>
    <g
       transform="matrix(1.2499999,0,0,-1.2499999,-110.86423,710.7192)"
       id="g2104">
      <g
         clip-path="url(#clipPath2108)"
         id="g2106">
        <path
           inkscape:connector-curvature="0"
           id="path2112"
           style="fill:#ffffff;fill-opacity:1;fill-rule:nonzero;stroke:none"
           d="m 223.3534,585.9771 c -8.6444,0 -15.6525,-7.0082 -15.6525,-15.6525 0,-8.6444 7.0081,-15.6525 15.6525,-15.6525 8.6443,0 15.6524,7.0067 15.6524,15.6525 0,8.6451 -7.0081,15.6525 -15.6524,15.6525 z m 8.2123,-22.2217 -16.4247,0 0,13.1398 16.424,0 0,-13.1398 7e-4,0 z" />
      </g>
    </g>
  </g>
</svg>
