<?xml version="1.0" encoding="UTF-8" standalone="no"?>
<svg
   xmlns:dc="http://purl.org/dc/elements/1.1/"
   xmlns:cc="http://creativecommons.org/ns#"
   xmlns:rdf="http://www.w3.org/1999/02/22-rdf-syntax-ns#"
   xmlns:svg="http://www.w3.org/2000/svg"
   xmlns="http://www.w3.org/2000/svg"
   xmlns:sodipodi="http://sodipodi.sourceforge.net/DTD/sodipodi-0.dtd"
   xmlns:inkscape="http://www.inkscape.org/namespaces/inkscape"
   version="1.1"
   width="55"
   height="55"
   viewBox="0 0 55 55"
   id="Layer_1"
   xml:space="preserve"
   inkscape:version="0.91 r13725"
   sodipodi:docname="key-F6-up.svg"><sodipodi:namedview
     pagecolor="#ffffff"
     bordercolor="#666666"
     borderopacity="1"
     objecttolerance="10"
     gridtolerance="10"
     guidetolerance="10"
     inkscape:pageopacity="0"
     inkscape:pageshadow="2"
     inkscape:window-width="1920"
     inkscape:window-height="998"
     id="namedview16"
     showgrid="false"
     inkscape:zoom="8.5818182"
     inkscape:cx="29.364407"
     inkscape:cy="27.5"
     inkscape:window-x="0"
     inkscape:window-y="35"
     inkscape:window-maximized="1"
     inkscape:current-layer="text58" /><metadata
     id="metadata29"><rdf:RDF><cc:Work
         rdf:about=""><dc:format>image/svg+xml</dc:format><dc:type
           rdf:resource="http://purl.org/dc/dcmitype/StillImage" /><dc:title /></cc:Work></rdf:RDF></metadata><defs
     id="defs27" /><rect
     width="53.433544"
     height="36.550632"
     rx="5.2876143"
     ry="5.2876143"
     x="0.78322786"
     y="17.666147"
     id="f6"
     style="fill:#ededed;stroke:#282828;stroke-width:1.56645572;fill-opacity:1;stroke-opacity:1" /><rect
     width="40.901897"
     height="24.071203"
     rx="5.2876143"
     ry="5.2876143"
     x="7.0490646"
     y="21.825956"
     id="f6m"
     style="fill:#f7f7f7;stroke:#b3b3b3;stroke-width:1.56645572;fill-opacity:1;stroke-opacity:0.7019608" /><g
     style="font-style:normal;font-variant:normal;font-weight:normal;font-stretch:normal;font-size:12.33776665px;line-height:125%;font-family:'Bitstream Vera Sans';-inkscape-font-specification:'Bitstream Vera Sans';text-align:start;writing-mode:lr-tb;text-anchor:start;fill:#282828;fill-opacity:1"
     id="text58"><path
       d="m 14.835338,24.375495 0,0.921718 -1.060276,0 q -0.596406,0 -0.831354,0.240972 -0.228923,0.240972 -0.228923,0.867499 l 0,0.596406 1.825363,0 0,0.861475 -1.825363,0 0,5.885741 -1.114496,0 0,-5.885741 -1.060277,0 0,-0.861475 1.060277,0 0,-0.469896 q 0,-1.126544 0.524114,-1.638609 0.524114,-0.51809 1.662707,-0.51809 l 1.048228,0 z"
       style="font-style:normal;font-variant:normal;font-weight:normal;font-stretch:normal;font-size:12.33776665px;line-height:125%;font-family:'Bitstream Vera Sans';-inkscape-font-specification:'Bitstream Vera Sans';text-align:start;writing-mode:lr-tb;text-anchor:start;fill:#282828;fill-opacity:1"
       id="path5949" /><path
       d="m 18.666793,28.76721 q -0.819304,0 -1.301248,0.560259 -0.47592,0.56026 -0.47592,1.536197 0,0.969912 0.47592,1.536196 0.481944,0.56026 1.301248,0.56026 0.819305,0 1.295225,-0.56026 0.481944,-0.566284 0.481944,-1.536196 0,-0.975937 -0.481944,-1.536197 -0.47592,-0.560259 -1.295225,-0.560259 z m 2.415745,-3.813382 0,1.108471 q -0.457847,-0.216875 -0.927742,-0.331337 -0.463872,-0.114461 -0.921718,-0.114461 -1.20486,0 -1.843436,0.81328 -0.632552,0.813281 -0.722916,2.457915 0.355433,-0.524115 0.891596,-0.801232 0.536163,-0.283142 1.180763,-0.283142 1.355468,0 2.138627,0.825329 0.789183,0.819304 0.789183,2.235015 0,1.385589 -0.819305,2.222967 -0.819305,0.837377 -2.180797,0.837377 -1.560293,0 -2.385622,-1.192811 -0.82533,-1.198836 -0.82533,-3.469997 0,-2.132602 1.012083,-3.397705 1.012082,-1.271127 2.716959,-1.271127 0.457847,0 0.921718,0.09036 0.469896,0.09036 0.975937,0.271094 z"
       style="font-style:normal;font-variant:normal;font-weight:normal;font-stretch:normal;font-size:12.33776665px;line-height:125%;font-family:'Bitstream Vera Sans';-inkscape-font-specification:'Bitstream Vera Sans';text-align:start;writing-mode:lr-tb;text-anchor:start;fill:#282828;fill-opacity:1"
       id="path5951" /></g><rect
     width="13.219035"
     height="9.9142771"
     x="31.301577"
     y="32.978195"
     id="Frame"
     style="fill:none;stroke:#282828;stroke-width:1.98285532;stroke-dasharray:none;stroke-opacity:1" /></svg>